<svg xmlns="http://www.w3.org/2000/svg" viewBox="0 0 512 635" role="img" aria-labelledby="title desc">
  <title id="title">The Windreed Wayfarers brushed logo and wordmark</title>
  <desc id="desc">The brushed reed-and-trail mark above an outlined serif wordmark.</desc>
  <svg x="31" y="0" width="450" height="450" viewBox="0 0 512 512">
<defs>
    <mask id="brush-mask" maskUnits="userSpaceOnUse" x="0" y="0" width="512" height="512">
      <rect width="512" height="512" fill="white"/>
      <path d="M80 335C88 338 95 341 103 344" fill="none" stroke="black" stroke-width="1.4" stroke-linecap="round"/>
      <path d="M96 365C102 367 108 369 115 371" fill="none" stroke="black" stroke-width="1" stroke-linecap="round"/>
    </mask>
  </defs>

  <!-- Expanded brush outline: variable width with two directional, tapered ends. -->
  <path
    d="M398 112
       C329 42 229 32 148 77
       C61 143 38 244 69 330
       C101 419 196 464 290 448
       C379 432 443 355 449 264
       C451 231 447 204 440 184
       C428 199 428 224 430 249
       C427 329 370 399 291 413
       C207 428 126 388 99 312
       C72 236 93 152 157 108
       C216 68 286 64 344 93
       C366 102 385 110 398 112Z"
    fill="#16323B"
    mask="url(#brush-mask)"
  />

  <g fill="none" stroke="#16323B" stroke-width="14" stroke-linecap="round">
    <path d="M172 400C170 337 165 289 139 243"/>
    <path d="M232 408C232 321 224 259 181 197"/>
    <path d="M288 407C289 350 284 309 261 267"/>
  </g>
  <g fill="#C8A45D">
    <rect x="116" y="192" width="22" height="57" rx="11" transform="rotate(-28 127 220.5)"/>
    <rect x="153" y="141" width="24" height="67" rx="12" transform="rotate(-33 165 174.5)"/>
    <rect x="238" y="218" width="22" height="55" rx="11" transform="rotate(-28 249 245.5)"/>
  </g>

  <!-- Open road edges remain visibly separate at the horizon. -->
  <g fill="none" stroke="#C8A45D" stroke-width="8" stroke-linecap="round">
    <path d="M303 414C310 382 309 352 326 327C345 300 371 284 392 263"/>
    <path d="M359 414C356 388 361 363 367 339C375 313 396 286 416 267"/>
  </g>
  <g fill="none" stroke="#16323B" stroke-linecap="round">
    <path d="M332 397C330 384 331 373 335 362" stroke-width="6"/>
    <path d="M349 334C355 324 361 316 368 308" stroke-width="5"/>
    <path d="M397 290L406 280" stroke-width="4"/>
  </g>
  </svg>
  <g id="word-windreed" fill="#16323B">
    <path d="M2028 1348Q2003 1347 1970.0 1336.5Q1937 1326 1909 1309Q1874 1287 1852.5 1258.5Q1831 1230 1815 1179Q1744 948 1650.0 639.5Q1556 331 1447 -18H1355L997 1074L624 -18H536Q437 332 331.0 708.5Q225 1085 189 1213Q180 1244 162.5 1268.0Q145 1292 115 1312Q90 1329 56.5 1337.5Q23 1346 -4 1348V1419H575V1348Q499 1344 445.5 1333.0Q392 1322 392 1296Q392 1286 395.0 1269.5Q398 1253 400 1243Q423 1155 481.5 952.5Q540 750 655 346L1009 1399H1107L1464 323Q1536 571 1588.0 756.5Q1640 942 1674 1074Q1698 1167 1704.0 1201.5Q1710 1236 1710 1260Q1710 1294 1663.5 1317.0Q1617 1340 1513 1348V1419H2028Z" transform="translate(83.145 548) scale(0.02539062 -0.02539062)"/>
    <path d="M718 0H79V71Q106 73 157.0 77.0Q208 81 229 89Q262 102 277.0 124.5Q292 147 292 187V1215Q292 1250 281.0 1273.5Q270 1297 229 1313Q199 1325 153.5 1335.5Q108 1346 79 1348V1419H718V1348Q687 1347 644.0 1340.5Q601 1334 569 1324Q531 1312 518.0 1285.0Q505 1258 505 1225V198Q505 165 519.5 139.5Q534 114 569 99Q590 91 637.5 81.5Q685 72 718 71Z" transform="translate(141.375 548) scale(0.02539062 -0.02539062)"/>
    <path d="M1554 1348Q1526 1347 1468.0 1332.0Q1410 1317 1385 1301Q1349 1276 1336.5 1205.0Q1324 1134 1324 1025V-14H1237L377 1147V415Q377 292 392.5 226.0Q408 160 440 132Q463 110 535.0 91.0Q607 72 630 71V0H48V71Q75 73 139.0 90.5Q203 108 219 122Q254 150 267.0 207.5Q280 265 280 404V1103Q280 1149 264.0 1195.0Q248 1241 221 1266Q185 1299 123.5 1322.5Q62 1346 24 1348V1419H429L1227 337V1012Q1227 1136 1211.0 1202.5Q1195 1269 1165 1291Q1137 1310 1073.5 1328.0Q1010 1346 977 1348V1419H1554Z" transform="translate(169.137 548) scale(0.02539062 -0.02539062)"/>
    <path d="M1457 701Q1457 520 1389.0 387.0Q1321 254 1212 169Q1102 84 965.0 42.0Q828 0 682 0H94V71Q123 71 169.5 76.5Q216 82 231 89Q261 102 274.5 127.5Q288 153 288 189V1213Q288 1247 276.5 1274.0Q265 1301 231 1317Q200 1332 164.0 1339.0Q128 1346 102 1348V1419H722Q850 1419 974.0 1379.5Q1098 1340 1190 1273Q1315 1184 1386.0 1040.0Q1457 896 1457 701ZM1212 702Q1212 845 1174.0 960.5Q1136 1076 1063 1162Q994 1244 893.5 1291.0Q793 1338 670 1338Q629 1338 577.5 1336.5Q526 1335 501 1334V243Q501 152 554.0 117.0Q607 82 717 82Q844 82 939.0 127.0Q1034 172 1093 252Q1155 336 1183.5 446.5Q1212 557 1212 702Z" transform="translate(216.525 548) scale(0.02539062 -0.02539062)"/>
    <path d="M1480 0H1098Q971 199 868.5 344.0Q766 489 646 643H501V193Q501 158 512.0 131.5Q523 105 559 91Q577 84 622.0 78.0Q667 72 698 71V0H98V71Q122 73 167.5 78.0Q213 83 231 91Q261 104 274.5 129.0Q288 154 288 193V1219Q288 1254 278.0 1281.0Q268 1308 231 1322Q206 1331 166.0 1338.5Q126 1346 98 1348V1419H753Q843 1419 922.0 1400.5Q1001 1382 1065 1341Q1127 1301 1164.0 1236.5Q1201 1172 1201 1081Q1201 999 1176.0 936.0Q1151 873 1102 827Q1057 784 994.0 752.5Q931 721 855 699Q960 560 1029.5 465.0Q1099 370 1200 234Q1244 174 1279.5 145.5Q1315 117 1350 99Q1376 86 1415.0 79.0Q1454 72 1480 71ZM954 1058Q954 1187 880.0 1262.5Q806 1338 671 1338H501V729H632Q770 729 862.0 817.5Q954 906 954 1058Z" transform="translate(262.975 548) scale(0.02539062 -0.02539062)"/>
    <path d="M1291 418 1264 0H86V71Q116 73 166.0 79.5Q216 86 231 93Q263 108 275.5 132.0Q288 156 288 193V1213Q288 1246 277.0 1271.5Q266 1297 231 1313Q204 1326 158.5 1336.0Q113 1346 86 1348V1419H1184V1077H1109Q1089 1153 1022.5 1238.5Q956 1324 896 1332Q865 1336 822.0 1338.0Q779 1340 724 1340H501V776H661Q738 776 773.5 790.5Q809 805 836 839Q858 868 873.5 916.5Q889 965 894 1008H969V453H894Q890 501 872.5 554.5Q855 608 836 632Q805 671 765.5 683.0Q726 695 661 695H501V269Q501 205 510.0 168.0Q519 131 545 112Q571 93 616.0 87.5Q661 82 744 82Q777 82 831.0 82.0Q885 82 922 86Q960 90 1000.5 100.5Q1041 111 1058 129Q1104 177 1154.5 274.5Q1205 372 1219 418Z" transform="translate(306.961 548) scale(0.02539062 -0.02539062)"/>
    <path d="M1291 418 1264 0H86V71Q116 73 166.0 79.5Q216 86 231 93Q263 108 275.5 132.0Q288 156 288 193V1213Q288 1246 277.0 1271.5Q266 1297 231 1313Q204 1326 158.5 1336.0Q113 1346 86 1348V1419H1184V1077H1109Q1089 1153 1022.5 1238.5Q956 1324 896 1332Q865 1336 822.0 1338.0Q779 1340 724 1340H501V776H661Q738 776 773.5 790.5Q809 805 836 839Q858 868 873.5 916.5Q889 965 894 1008H969V453H894Q890 501 872.5 554.5Q855 608 836 632Q805 671 765.5 683.0Q726 695 661 695H501V269Q501 205 510.0 168.0Q519 131 545 112Q571 93 616.0 87.5Q661 82 744 82Q777 82 831.0 82.0Q885 82 922 86Q960 90 1000.5 100.5Q1041 111 1058 129Q1104 177 1154.5 274.5Q1205 372 1219 418Z" transform="translate(348.434 548) scale(0.02539062 -0.02539062)"/>
    <path d="M1457 701Q1457 520 1389.0 387.0Q1321 254 1212 169Q1102 84 965.0 42.0Q828 0 682 0H94V71Q123 71 169.5 76.5Q216 82 231 89Q261 102 274.5 127.5Q288 153 288 189V1213Q288 1247 276.5 1274.0Q265 1301 231 1317Q200 1332 164.0 1339.0Q128 1346 102 1348V1419H722Q850 1419 974.0 1379.5Q1098 1340 1190 1273Q1315 1184 1386.0 1040.0Q1457 896 1457 701ZM1212 702Q1212 845 1174.0 960.5Q1136 1076 1063 1162Q994 1244 893.5 1291.0Q793 1338 670 1338Q629 1338 577.5 1336.5Q526 1335 501 1334V243Q501 152 554.0 117.0Q607 82 717 82Q844 82 939.0 127.0Q1034 172 1093 252Q1155 336 1183.5 446.5Q1212 557 1212 702Z" transform="translate(389.906 548) scale(0.02539062 -0.02539062)"/>
  </g>
  <circle cx="129" cy="593" r="3.5" fill="#C8A45D"/>
  <circle cx="383" cy="593" r="3.5" fill="#C8A45D"/>
  <g id="word-wayfarers" fill="#16323B">
    <path d="M2028 1348Q2003 1347 1970.0 1336.5Q1937 1326 1909 1309Q1874 1287 1852.5 1258.5Q1831 1230 1815 1179Q1744 948 1650.0 639.5Q1556 331 1447 -18H1355L997 1074L624 -18H536Q437 332 331.0 708.5Q225 1085 189 1213Q180 1244 162.5 1268.0Q145 1292 115 1312Q90 1329 56.5 1337.5Q23 1346 -4 1348V1419H575V1348Q499 1344 445.5 1333.0Q392 1322 392 1296Q392 1286 395.0 1269.5Q398 1253 400 1243Q423 1155 481.5 952.5Q540 750 655 346L1009 1399H1107L1464 323Q1536 571 1588.0 756.5Q1640 942 1674 1074Q1698 1167 1704.0 1201.5Q1710 1236 1710 1260Q1710 1294 1663.5 1317.0Q1617 1340 1513 1348V1419H2028Z" transform="translate(146.356 600) scale(0.01074219 -0.01074219)"/>
    <path d="M1421 0H830V71Q908 76 959.5 91.0Q1011 106 1011 128Q1011 137 1009.0 150.0Q1007 163 1003 173L885 491H388Q360 421 342.5 369.0Q325 317 311 273Q298 230 293.0 203.0Q288 176 288 159Q288 119 351.0 97.0Q414 75 493 71V0H-41V71Q-15 73 24.0 82.5Q63 92 88 108Q128 135 150.0 164.5Q172 194 193 246Q300 513 429.0 846.0Q558 1179 659 1439H739L1212 215Q1227 176 1246.0 152.0Q1265 128 1299 105Q1322 91 1359.0 81.5Q1396 72 1421 71ZM849 580 634 1130 423 580Z" transform="translate(178.319 600) scale(0.01074219 -0.01074219)"/>
    <path d="M1314 1348Q1297 1347 1260.0 1334.5Q1223 1322 1207 1310Q1168 1286 1154.0 1273.0Q1140 1260 1100 1205Q1022 1095 956.0 982.0Q890 869 791 695Q754 631 742.0 592.0Q730 553 730 479V208Q730 172 744.5 145.5Q759 119 794 103Q815 95 869.0 83.5Q923 72 956 71V0H292V71Q320 73 376.0 78.5Q432 84 454 93Q490 108 503.5 134.0Q517 160 517 198V543Q517 559 497.5 601.5Q478 644 451 696Q391 812 318.0 947.0Q245 1082 191 1178Q158 1235 132.5 1264.0Q107 1293 74 1315Q50 1330 16.5 1338.0Q-17 1346 -44 1348V1419H561V1348Q459 1346 417.0 1334.0Q375 1322 375 1300Q375 1294 381.0 1279.0Q387 1264 398 1241Q411 1215 429.0 1181.5Q447 1148 463 1117Q510 1028 559.0 939.5Q608 851 687 709Q844 962 926.5 1103.5Q1009 1245 1009 1273Q1009 1296 992.0 1310.0Q975 1324 947 1332Q918 1340 884.0 1342.5Q850 1345 821 1348V1419H1314Z" transform="translate(203.579 600) scale(0.01074219 -0.01074219)"/>
    <path d="M1199 1064H1124Q1103 1143 1036.5 1233.0Q970 1323 909 1332Q878 1336 835.5 1338.0Q793 1340 739 1340H501V770H664Q738 770 779.0 785.5Q820 801 849 833Q869 855 885.5 901.5Q902 948 907 1001H983V444H907Q904 488 886.5 544.0Q869 600 849 625Q819 662 773.5 675.5Q728 689 664 689H501V200Q501 167 514.0 141.0Q527 115 560 99Q575 92 625.0 82.0Q675 72 701 71V0H86V71Q116 73 166.0 77.5Q216 82 231 89Q261 102 274.5 127.5Q288 153 288 189V1213Q288 1246 277.0 1271.5Q266 1297 231 1313Q204 1326 158.5 1336.0Q113 1346 86 1348V1419H1199Z" transform="translate(227.614 600) scale(0.01074219 -0.01074219)"/>
    <path d="M1421 0H830V71Q908 76 959.5 91.0Q1011 106 1011 128Q1011 137 1009.0 150.0Q1007 163 1003 173L885 491H388Q360 421 342.5 369.0Q325 317 311 273Q298 230 293.0 203.0Q288 176 288 159Q288 119 351.0 97.0Q414 75 493 71V0H-41V71Q-15 73 24.0 82.5Q63 92 88 108Q128 135 150.0 164.5Q172 194 193 246Q300 513 429.0 846.0Q558 1179 659 1439H739L1212 215Q1227 176 1246.0 152.0Q1265 128 1299 105Q1322 91 1359.0 81.5Q1396 72 1421 71ZM849 580 634 1130 423 580Z" transform="translate(251.295 600) scale(0.01074219 -0.01074219)"/>
    <path d="M1480 0H1098Q971 199 868.5 344.0Q766 489 646 643H501V193Q501 158 512.0 131.5Q523 105 559 91Q577 84 622.0 78.0Q667 72 698 71V0H98V71Q122 73 167.5 78.0Q213 83 231 91Q261 104 274.5 129.0Q288 154 288 193V1219Q288 1254 278.0 1281.0Q268 1308 231 1322Q206 1331 166.0 1338.5Q126 1346 98 1348V1419H753Q843 1419 922.0 1400.5Q1001 1382 1065 1341Q1127 1301 1164.0 1236.5Q1201 1172 1201 1081Q1201 999 1176.0 936.0Q1151 873 1102 827Q1057 784 994.0 752.5Q931 721 855 699Q960 560 1029.5 465.0Q1099 370 1200 234Q1244 174 1279.5 145.5Q1315 117 1350 99Q1376 86 1415.0 79.0Q1454 72 1480 71ZM954 1058Q954 1187 880.0 1262.5Q806 1338 671 1338H501V729H632Q770 729 862.0 817.5Q954 906 954 1058Z" transform="translate(276.555 600) scale(0.01074219 -0.01074219)"/>
    <path d="M1291 418 1264 0H86V71Q116 73 166.0 79.5Q216 86 231 93Q263 108 275.5 132.0Q288 156 288 193V1213Q288 1246 277.0 1271.5Q266 1297 231 1313Q204 1326 158.5 1336.0Q113 1346 86 1348V1419H1184V1077H1109Q1089 1153 1022.5 1238.5Q956 1324 896 1332Q865 1336 822.0 1338.0Q779 1340 724 1340H501V776H661Q738 776 773.5 790.5Q809 805 836 839Q858 868 873.5 916.5Q889 965 894 1008H969V453H894Q890 501 872.5 554.5Q855 608 836 632Q805 671 765.5 683.0Q726 695 661 695H501V269Q501 205 510.0 168.0Q519 131 545 112Q571 93 616.0 87.5Q661 82 744 82Q777 82 831.0 82.0Q885 82 922 86Q960 90 1000.5 100.5Q1041 111 1058 129Q1104 177 1154.5 274.5Q1205 372 1219 418Z" transform="translate(302.491 600) scale(0.01074219 -0.01074219)"/>
    <path d="M1480 0H1098Q971 199 868.5 344.0Q766 489 646 643H501V193Q501 158 512.0 131.5Q523 105 559 91Q577 84 622.0 78.0Q667 72 698 71V0H98V71Q122 73 167.5 78.0Q213 83 231 91Q261 104 274.5 129.0Q288 154 288 193V1219Q288 1254 278.0 1281.0Q268 1308 231 1322Q206 1331 166.0 1338.5Q126 1346 98 1348V1419H753Q843 1419 922.0 1400.5Q1001 1382 1065 1341Q1127 1301 1164.0 1236.5Q1201 1172 1201 1081Q1201 999 1176.0 936.0Q1151 873 1102 827Q1057 784 994.0 752.5Q931 721 855 699Q960 560 1029.5 465.0Q1099 370 1200 234Q1244 174 1279.5 145.5Q1315 117 1350 99Q1376 86 1415.0 79.0Q1454 72 1480 71ZM954 1058Q954 1187 880.0 1262.5Q806 1338 671 1338H501V729H632Q770 729 862.0 817.5Q954 906 954 1058Z" transform="translate(327.364 600) scale(0.01074219 -0.01074219)"/>
    <path d="M981 651Q1026 601 1047.5 541.5Q1069 482 1069 403Q1069 215 930.0 93.0Q791 -29 585 -29Q490 -29 395.0 0.5Q300 30 231 72L188 -1H108L94 485H175Q200 395 233.5 322.5Q267 250 322 187Q374 128 443.5 93.0Q513 58 605 58Q674 58 725.5 76.0Q777 94 809 127Q841 160 856.5 204.5Q872 249 872 307Q872 392 824.0 465.5Q776 539 681 577Q616 603 532.0 634.5Q448 666 387 694Q267 748 200.5 835.5Q134 923 134 1064Q134 1145 167.0 1215.0Q200 1285 261 1340Q319 1392 398.0 1421.5Q477 1451 563 1451Q661 1451 738.5 1421.0Q816 1391 880 1351L921 1419H1001L1009 948H928Q906 1029 878.5 1103.0Q851 1177 807 1237Q764 1295 702.0 1329.5Q640 1364 550 1364Q455 1364 388.0 1303.0Q321 1242 321 1154Q321 1062 364.0 1001.5Q407 941 489 902Q562 867 632.5 841.5Q703 816 769 787Q829 761 884.5 728.0Q940 695 981 651Z" transform="translate(353.301 600) scale(0.01074219 -0.01074219)"/>
  </g>
</svg>
