<?xml version="1.0" encoding="utf-8"?>
<svg viewBox="0 0 1254 1254" role="img" aria-labelledby="title desc" shape-rendering="geometricPrecision" xmlns="http://www.w3.org/2000/svg">
  <title id="title">The Windreed Wayfarers transparent inverse mark</title>
  <desc id="desc">A warm ivory and old-gold inverse mark with a transparent background for dark interfaces.</desc>
  <path fill="#F3EFE6" stroke="#F3EFE6" stroke-width="1.2" stroke-linecap="round" stroke-linejoin="round" fill-rule="evenodd" paint-order="stroke fill" d="M 933.3,260.75 c -0.79,2.04 -2.1,3.59 -3.95,4.66 c 0.86,0.99 0.68,1.68 -0.53,2.07 c -122.21,-87.26 -282.37,-110.86 -423.51,-57.81 c -171.77,65.31 -273.78,235.47 -256.05,417.83 c 13.62,133.37 85.6,248.16 193.69,325.88 c 1.74,1.51 1.69,-3.21 1.92,-3.88 c 15.69,-134.25 -13.56,-258.5 -77.38,-376.48 c -0.32,-0.72 -0.55,-1.46 -0.68,-2.24 c 7.36,-0.95 10.73,-4.21 15.91,-8.95 c 76.57,119.8 109.82,252.77 97.43,394.7 c 0.01,1.31 0.48,1.5 1.4,0.57 c 17.99,-21.53 38.3,-40.6 60.92,-57.21 c 7.94,-5.67 15.91,-11.3 23.89,-16.87 c 6.82,-139.03 -40.89,-282.73 -108.23,-403.1 c 0.6,-0.49 1.26,-0.62 1.97,-0.4 c 1.3,1.94 1.26,3.14 2.18,0.25 c 2.35,-1.93 6.38,-4.75 6.47,-8.14 c -1.09,-1.29 -2.37,1.03 -2.82,-0.59 c 2.31,-2.4 4.63,-4.78 6.94,-7.16 c 38.45,59.45 69.2,122.64 92.25,189.58 c 21.99,64.8 37.17,137.81 41.03,206.02 c 0.1,1.43 0.82,1.84 2.16,1.23 c 20.15,-9.46 40.71,-17.92 61.68,-25.39 c 0.66,-0.41 0.99,-1.01 0.97,-1.8 c -1.6,-63.76 -15.44,-125.32 -39.54,-184.29 c 1.27,-2.29 2.96,-4.21 5.06,-5.76 c 0.48,0.21 0.94,0.18 1.37,-0.08 c 1.24,-1.84 2.8,-1.71 1.29,-4.13 c -0.11,-1.02 3.5,-3.27 4.34,-3.96 c 1.93,1.43 1.59,1.76 3.77,0.58 c 28.22,58.62 46.62,121.96 53.58,186.66 c 0.26,1.53 1.14,2.01 2.63,1.42 c 52.07,-15.34 105.08,-25.99 159.04,-31.94 c 6.83,0.66 33.17,9.07 24.94,21.03 c -6.52,8.29 -20.31,11.74 -29.91,15.04 c -76.01,22.26 -158.18,47.3 -221.64,96.32 c -55.63,42.87 -83.65,112.94 -33.56,172.58 c 0.45,0.79 0.21,1.21 -0.72,1.25 A 474 474 0 1 1 933.3 260.75 Z M 1068.04,478.92 c 67.24,129.03 38.02,290.27 -41.28,407.15 c -47.32,69.77 -108.37,124.11 -183.15,163.04 c -5.85,3.94 -20.83,-5.28 -26.96,-7.26 c -31.76,-14.4 -64.16,-42.33 -61.15,-80.57 c 3.98,-38.33 43.18,-64.07 73.45,-82.02 c 26.4,-15.71 56.86,-28.71 82.06,-45.9 c 10.79,-7.22 19.96,-20.67 4.96,-29.66 c -7.82,-4.64 -16.22,-7.71 -25.19,-9.23 c 2.31,-3.38 4.78,-2.54 8.34,-2.38 c 0.34,0.18 2.08,1.17 0.94,1.53 c 1.51,0.94 3.14,1.66 4.88,2.15 c 2.34,0.95 4.21,-1.14 6.32,-1.82 c 3,-2.35 6.13,-4.5 9.39,-6.45 c -0.94,-0.38 -1.93,-0.63 -2.98,-0.75 c -0.31,-0.22 -0.54,-0.5 -0.7,-0.84 c 0.99,0.02 1.93,-0.15 2.83,-0.51 c -0.29,-0.6 -0.77,-0.99 -1.44,-1.14 c -28.94,-10.6 -56.66,-16.42 -87.39,-19.12 c 0.37,-0.76 0.91,-1.35 1.64,-1.79 c -0.69,-0.04 -1.39,-0.03 -2.12,0.04 c -2.91,-1.16 -4.86,-1.34 -7.88,-1.55 c -1.52,-0.58 -3.57,-1.4 -1.02,-2.66 c 2.32,-1.57 9.24,-2.89 7.7,-6.8 c 0.36,-0.41 0.8,-0.73 1.31,-0.97 c -0.94,-0.29 -1.91,-0.53 -2.9,-0.72 c -0.4,-0.26 -0.69,-0.6 -0.88,-1.03 c 8.62,-2.27 17.12,-4.92 25.5,-7.97 c 67.33,-31.4 133.62,-58.48 209.19,-60.39 c 3.18,0.12 2.86,-1.28 3.63,-3.77 c 12.58,-64.1 11.09,-129.45 -6.15,-192.55 c 1.39,-0.25 1.7,0.84 2.48,1.61 c 1.66,-1.89 2.12,-3.4 2.98,-5.7 c 1.92,-1.06 2.04,0.63 3.59,-1.97 Z M 696.74,736.31 C 733.81,725.66 779.97,724.72 815.95,739.66 C 818.06,740.5 820.05,741.52 821.93,742.72 C 782.1,745.19 740.33,746.75 698.48,747.94 C 697.16,748.08 695.97,747.76 694.92,746.98 C 694.42,743.34 695.02,739.78 696.74,736.31 Z" />
  <path fill="#F3EFE6" stroke="#F3EFE6" stroke-width="1.2" stroke-linecap="round" stroke-linejoin="round" fill-rule="evenodd" paint-order="stroke fill" d="M 465.93,471.04 c 0.45,1.62 1.73,-0.7 2.82,0.59 c -0.09,3.39 -4.12,6.21 -6.47,8.14 c -0.92,2.89 -0.88,1.69 -2.18,-0.25 c -0.71,-0.22 -1.37,-0.09 -1.97,0.4 c -1,-1.62 -1.83,-3.31 -2.48,-5.09 c 3.54,-0.98 6.97,-2.24 10.28,-3.79 Z" />
  <path fill="#D6AB4D" stroke="#D6AB4D" stroke-width="0.8" stroke-linecap="round" stroke-linejoin="round" fill-rule="evenodd" paint-order="stroke fill" d="M 472.87,463.88 c -2.31,2.38 -4.63,4.76 -6.94,7.16 c -3.31,1.55 -6.74,2.81 -10.28,3.79 c -10.81,0.2 -19.14,-3.6 -26.02,-11.88 c -17.25,-26.92 -33.37,-54.84 -49.76,-82.32 c -15.12,-31.24 22.36,-55.4 43.86,-26.91 c 16.81,27.24 33.42,54.6 49.83,82.08 c 4.25,9.67 3.26,18.6 -0.69,28.08 Z M 382.72,561.83 c -5.18,4.74 -8.55,8 -15.91,8.95 c -9.27,-0.49 -15.84,-4.58 -21.49,-11.73 c -14.13,-24.26 -28.08,-48.62 -41.87,-73.07 c -13.43,-28.69 19.5,-50.88 38.31,-23.24 c 10.9,18.43 21.76,36.89 32.58,55.36 c 9.12,16.22 17,24.59 8.38,43.73 Z M 632.85,608.74 c -4.89,4.28 -8.39,7.15 -15,8.48 c -8.43,-0.19 -15.27,-3.58 -20.52,-10.18 c -14.61,-25.11 -28.98,-50.35 -43.11,-75.73 c -11.49,-27.48 19.89,-48.73 38.4,-22.58 c 14.2,24.3 28.16,48.73 41.9,73.29 c 3.89,10.08 2.06,17.17 -1.67,26.72 Z" />
  <path fill="#F3EFE6" stroke="#F3EFE6" stroke-width="1.2" stroke-linecap="round" stroke-linejoin="round" fill-rule="evenodd" paint-order="stroke fill" d="M 1068.04,478.92 c -1.55,2.6 -1.67,0.91 -3.59,1.97 c -0.86,2.3 -1.32,3.81 -2.98,5.7 c -0.78,-0.77 -1.09,-1.86 -2.48,-1.61 c -3.96,-13.33 -8.79,-30.31 -14.83,-42.64 c -0.09,-0.4 0.03,-0.7 0.36,-0.92 c 0.63,0.16 1.11,0.54 1.41,1.14 c 7.99,11.95 15.71,23.43 22.11,36.36 Z M 632.85,608.74 c 5.23,8.2 9.74,18.43 14.4,27.14 c -2.18,1.18 -1.84,0.85 -3.77,-0.58 c -0.84,0.69 -4.45,2.94 -4.34,3.96 c 1.51,2.42 -0.05,2.29 -1.29,4.13 c -0.43,0.26 -0.89,0.29 -1.37,0.08 c -2.1,1.55 -3.79,3.47 -5.06,5.76 c -4.41,-10.72 -8.93,-21.39 -13.57,-32.01 c 6.61,-1.33 10.11,-4.2 15,-8.48 Z M 826.82,749.66 c 0.19,0.43 0.48,0.77 0.88,1.03 c 0.99,0.19 1.96,0.43 2.9,0.72 c -0.51,0.24 -0.95,0.56 -1.31,0.97 c 1.54,3.91 -5.38,5.23 -7.7,6.8 c -2.55,1.26 -0.5,2.08 1.02,2.66 c 3.02,0.21 4.97,0.39 7.88,1.55 c 0.73,-0.07 1.43,-0.08 2.12,-0.04 c -0.73,0.44 -1.27,1.03 -1.64,1.79 c -15.17,-1.38 -30.37,-1.98 -45.59,-1.78 c -1.63,-0.48 -1.68,-1.03 -0.16,-1.67 c 13.74,-4.43 27.61,-8.44 41.6,-12.03 Z" />
  <path fill="#F3EFE6" stroke="#F3EFE6" stroke-width="1.2" stroke-linecap="round" stroke-linejoin="round" fill-rule="evenodd" paint-order="stroke fill" d="M 933.3,260.75 c 6.84,7.37 13.22,15.1 19.16,23.21 c 0.27,0.41 0.25,0.79 -0.07,1.14 c -7.75,-5.97 -15.61,-11.84 -23.57,-17.62 c 1.21,-0.39 1.39,-1.08 0.53,-2.07 c 1.85,-1.07 3.16,-2.62 3.95,-4.66 Z M 916.97,785.91 c 0.16,0.34 0.39,0.62 0.7,0.84 c 1.05,0.12 2.04,0.37 2.98,0.75 c -3.26,1.95 -6.39,4.1 -9.39,6.45 c -2.11,0.68 -3.98,2.77 -6.32,1.82 c -1.74,-0.49 -3.37,-1.21 -4.88,-2.15 c 1.14,-0.36 -0.6,-1.35 -0.94,-1.53 c -3.56,-0.16 -6.03,-1 -8.34,2.38 c -6.38,-1.33 -12.81,-2.29 -19.3,-2.86 c -0.5,-0.18 -0.58,-0.45 -0.23,-0.8 c 15.2,-1.97 30.44,-3.6 45.72,-4.9 Z" />
</svg>
